/* XPM */
static char * cishell_xpm[] = {
"64 64 227 2",
"  	c None",
". 	c #FEFFFC",
"+ 	c #F8FEFF",
"@ 	c #F7FDFF",
"# 	c #F7F9F6",
"$ 	c #EBF1E6",
"% 	c #D6E9D4",
"& 	c #CEE6CA",
"* 	c #CDE5C9",
"= 	c #D2E5D0",
"- 	c #E2F1E4",
"; 	c #FAFCF9",
"> 	c #F3F5F2",
", 	c #DFEDE0",
"' 	c #BDDAB7",
") 	c #91C389",
"! 	c #70B56C",
"~ 	c #5CAD57",
"{ 	c #5AAA54",
"] 	c #58A64A",
"^ 	c #67AF59",
"/ 	c #67B262",
"( 	c #89C080",
"_ 	c #B4D8B3",
": 	c #DFEBD8",
"< 	c #ECF3E8",
"[ 	c #45A04A",
"} 	c #3A9A36",
"| 	c #3D9C38",
"1 	c #479C39",
"2 	c #51A338",
"3 	c #4DA23E",
"4 	c #54A63B",
"5 	c #53A53A",
"6 	c #60A940",
"7 	c #4CA13D",
"8 	c #379A3D",
"9 	c #6DB472",
"0 	c #E9F3EE",
"a 	c #429A3E",
"b 	c #50A441",
"c 	c #55A73C",
"d 	c #56A83D",
"e 	c #52A439",
"f 	c #469B38",
"g 	c #FBFDFA",
"h 	c #F9FBF8",
"i 	c #D6E6CC",
"j 	c #9ACB9E",
"k 	c #36993C",
"l 	c #389B3E",
"m 	c #479F42",
"n 	c #57A93E",
"o 	c #5BAB39",
"p 	c #64AB3A",
"q 	c #A5CEA2",
"r 	c #F8FAF7",
"s 	c #C4DFC9",
"t 	c #DBEADD",
"u 	c #C4DEB5",
"v 	c #88C06C",
"w 	c #3E9D39",
"x 	c #4FA237",
"y 	c #66AD3C",
"z 	c #68AF3E",
"A 	c #5DAC3A",
"B 	c #67AE3D",
"C 	c #5DA845",
"D 	c #41A13C",
"E 	c #D3E6D2",
"F 	c #60AD64",
"G 	c #F0F3E2",
"H 	c #A5D379",
"I 	c #7EBD4D",
"J 	c #EAF4EF",
"K 	c #6DB269",
"L 	c #34983B",
"M 	c #5AAA38",
"N 	c #6CB139",
"O 	c #6AB13F",
"P 	c #71B63D",
"Q 	c #6EB33A",
"R 	c #65AC3B",
"S 	c #5BAC69",
"T 	c #EDF7F1",
"U 	c #B0D4B0",
"V 	c #DCECD2",
"W 	c #9CCE65",
"X 	c #84BF40",
"Y 	c #A1D17D",
"Z 	c #97CBA4",
"` 	c #3D9843",
" .	c #459D41",
"..	c #73B83F",
"+.	c #72B73E",
"@.	c #9CCDA0",
"#.	c #7DBC7A",
"$.	c #50A354",
"%.	c #C8DFC4",
"&.	c #CEE3C1",
"*.	c #7CBC53",
"=.	c #76B938",
"-.	c #89C259",
";.	c #E4F0DD",
">.	c #409B45",
",.	c #70B53C",
"'.	c #78BB3A",
").	c #33973A",
"!.	c #3F9E4E",
"~.	c #C6E1CB",
"{.	c #AED2AE",
"].	c #C3E0BC",
"^.	c #63AE4B",
"/.	c #2B943E",
"(.	c #329639",
"_.	c #87C039",
":.	c #F4F7F3",
"<.	c #3B9B37",
"[.	c #2F9741",
"}.	c #A6D2AC",
"|.	c #60AB48",
"1.	c #86C072",
"2.	c #A2CEA8",
"3.	c #2F9437",
"4.	c #319538",
"5.	c #7ABD3D",
"6.	c #7BBE3E",
"7.	c #53A844",
"8.	c #2A933D",
"9.	c #ABD2B3",
"0.	c #79B877",
"a.	c #B8D8BA",
"b.	c #E7F1EC",
"c.	c #4AA158",
"d.	c #27913B",
"e.	c #73B44B",
"f.	c #6FB43B",
"g.	c #89C33B",
"h.	c #3B9A4A",
"i.	c #E8EFE4",
"j.	c #C9E4CE",
"k.	c #F6F8F4",
"l.	c #389748",
"m.	c #95C9A2",
"n.	c #90C591",
"o.	c #80BD88",
"p.	c #76B87C",
"q.	c #BDDDBF",
"r.	c #8DC597",
"s.	c #79BC80",
"t.	c #83BD83",
"u.	c #AFD6B7",
"v.	c #DDEBDE",
"w.	c #D4EBDC",
"x.	c #50A74A",
"y.	c #B5DAB5",
"z.	c #72B465",
"A.	c #60AB5C",
"B.	c #EBF5F0",
"C.	c #BADDC5",
"D.	c #C0E0C2",
"E.	c #92C894",
"F.	c #3B9E40",
"G.	c #5EAE3B",
"H.	c #EEF8F3",
"I.	c #69AF53",
"J.	c #BEDEC0",
"K.	c #9BC896",
"L.	c #73B86F",
"M.	c #92C780",
"N.	c #C7E2CC",
"O.	c #63AE5F",
"P.	c #7FBB74",
"Q.	c #74B668",
"R.	c #4DA447",
"S.	c #54A858",
"T.	c #D0E6D8",
"U.	c #79BC3B",
"V.	c #77BA39",
"W.	c #55A650",
"X.	c #BAD9BC",
"Y.	c #B1D9BA",
"Z.	c #B2D6B2",
"`.	c #63B067",
" +	c #A4D0AA",
".+	c #94C68C",
"++	c #83C08B",
"@+	c #499E3A",
"#+	c #8DC28F",
"$+	c #94CA96",
"%+	c #97C79B",
"&+	c #5EAB4F",
"*+	c #7FBF90",
"=+	c #3C9F55",
"-+	c #429D47",
";+	c #52A656",
">+	c #CBE2C7",
",+	c #D3EADB",
"'+	c #65AD6B",
")+	c #64AF73",
"!+	c #4CA763",
"~+	c #A7D0A4",
"{+	c #85BF84",
"]+	c #5BA94C",
"^+	c #82BE3E",
"/+	c #D8EBD6",
"(+	c #83BF77",
"_+	c #9AC98A",
":+	c #95C77A",
"<+	c #6FB24F",
"[+	c #69B247",
"}+	c #A9D192",
"|+	c #7AB75C",
"1+	c #4AA44E",
"2+	c #9ECFA2",
"3+	c #B2D69E",
"4+	c #AAD3A7",
"5+	c #9FC991",
"6+	c #CAE5CF",
"7+	c #8AC489",
"8+	c #A4D18B",
"9+	c #97C774",
"0+	c #A0CE9B",
"a+	c #E3F2E5",
"b+	c #98CB91",
"c+	c #70B875",
"d+	c #88C287",
". . . . . . . . . . . . . . . . . . . . + @ @ @ @ @ # $ % & * * * * = % - # @ @ @ @ @ + . . . . . . . . . . . . . . . . . . . . ",
". . . . . . . . . . . . . . . . . . + @ ; ; > , ' ) ! ~ { ] ] ] ] ] ] ] ^ / ( _ : < ; ; @ + . . . . . . . . . . . . . . . . . . ",
". . . . . . . . . . . . . . . . @ ; @ @ @ , ! [ } | 1 2 3 4 5 4 6 5 5 7 7 1 1 8 [ 9 , @ ; @ @ + . . . . . . . . . . . . . . . . ",
". . . . . . . . . . . . . . . @ @ @ @ @ 0 9 a 1 1 7 b 7 6 6 6 6 c d c 5 e b 7 1 f } 9 0 @ @ ; ; @ g . . . . . . . . . . . . . . ",
". . . . . . . . . . . . + @ @ h $ i h h j k l m 7 e 5 5 4 n o p p 6 6 6 d 5 e 7 a a a q r @ s t @ @ @ + . . . . . . . . . . . . ",
". . . . . . . . . . . . g @ # u v $ @ = [ a 1 w x b 6 6 p y z A z z B p p c C D 7 1 f [ E h , F q > ; g . . . . . . . . . . . . ",
". . . . . . . . . . @ @ ; G H I u ; J K L w 7 3 5 M M 6 N z O P P Q z A R M p 2 3 w l k S T @ U m 9 t @ @ + . . . . . . . . . . ",
". . . . . . . . . + @ @ V W X Y @ h Z ` 8  .2 2 5 d R N z ........+.P O z p d 4 e 7 1 l a @.h # #.} $.%.h ; + . . . . . . . . . ",
". . . . . . . . g @ ; &.*.=.-.;.@ = >.a } l D 6 6 n A ,.O X =.X '...I =.z B 6 d 5 7 1 } ).!.~.+ t ^ ).[ {.; @ + . . . . . . . . ",
". . . . . . . . @ r ].^.R z u r > S /.(.a 1 2 7 M y O O ..+.X X X _.=.,.,.z B d C 2 1 a a (.S :.# U w <.[.}.# ; + . . . . . . . ",
". . . . . . + @ @ = ~ b |.1.# r 2.3.4.} 1 1 2 b 6 B O ,.=...5.X 6.X 5...,.z R M 2 7.f 8 a ` 8.9.@ @ 0.m  .[ a.; @ . . . . . . . ",
". . . . . . @ ; ; = E $ T g @ b.c.d.4.).w 7 D 6 d A e.f...X X g.g._.I ..f.N p 6 b x w f } 3.d.h.i.r r # b.% j.@ ; @ + . . . . . ",
". . . . . g @ @ @ @ @ @ h k.h k.9.l.a (.a 7 2 2 6 o z f.P '.X X 6._.X P O N o p b e 1 k ).4.l.m.k.@ # r @ @ r @ @ g g . . . . . ",
". . . . . @ h , s a.2.n.o.p.q.@ h 2.[.a } 1 1 5 M p B z P ....'.X +.=.P f.y 6 c 5 3 w f L [.r.k.@ i.s.t.n.q u.s v.@ @ + . . . . ",
". . . + @ @ s !.4.L a | f 8 m {.h @ 9.>.8 w 7 3 4 p B z Q +.+.P +.f.,.O z B 6 4 e 3 a a a j @ @ w.F l k k a k ).` u.; @ + . . . ",
". . . . ; k.9 a k f | 7 w 7 1 x.y.r r Z  . .1 2 6 4 p R z N f.,.,.f.z z A n d 5 3 7 w 8 r.> @ , z.1 1 1 1 <.f a 3.A.B.; . . . . ",
". . . @ @ C.8 f w 7 7 b 2 b b 3 x.D.. @ E.F.f w 3 b M 6 6 z z z z N G.B R M 6 2 1 1 f s.H.r $ z.e 5 4 5 3 7 1 1 k a {.@ @ . . . ",
". . . @ > 0.a | 7 2 e p n p p 6 6 I.J.h k.K.l m 2 e 3 d o 6 A y y 6 R 6 e C 7 7 7 l s.$ @ - L.3 b c 6 6 p 4 5 7 1 a F J ; . . . ",
". . . @ t m  .7 b 6 c R A p M M 4 4 ^ E h > 0.a 1 2 2 b c 6 c n o d c 6 2 2 1 w 1 ! 0 ; > M.6 M 6 M o o p n d 4 D  .a N.@ + . . ",
". . . @ @.l 7 e 6 n B z O O N B R 6 4 ^ : h $ ! F. .7 2 2 2 6 6 3 6 C 7 2 w w f O.t @ :.( 3 4 6 N z Q O z z p 6 6 D w ) @ g . . ",
". . . # P.} 2 e p B Q ......+.f.N p 6 b Q., @ : O. .R.R.] x.R.C x.b b R.] ]  .S.= ; k.K.e c o A f.P I =.P N A M 6 7 l O.0 + . . ",
". . . v.S.1 3 c o z f.I X X X ..z A M 5 7 #.> @ v.~.s N.N.i i = % E E = N.%.~.T.@ @ }.C b 6 R O P ..U...V.P N p M e 1 W.E g . . ",
". + . N.m w e 6 A z =.=._.X X '.O z n b x w q h ; g ; ; @ @ @ @ @ @ ; @ @ @ ; @ @ : m 7 2 6 z O X X _.X 6...z R 6 c 1 F.X.+ . . ",
". . . '  .7 e 4 B Q f.X X _.6...+.z R d w ] N.@ b.X.Y._ U Z._ {._ _ Z._ _ ' a.: ; B.`.1 5 n y f.f.X X g.X ..P B c 5 D | @.g . . ",
". + +  +8  .2 c p z Q =.X X X +.O B p 6 1 .+; k.++a 8 1 1 1 2 2 @+7 1 1 } 8 (.S b.+ D.] e n R N =.X 5.X X ,.O y 6 6 1 f #++ . . ",
". . . r.f 1 1 6 n z G.,.P P f.f.z A 5 3 ! $ @ Y.a } 1 1 7 e 3 3 2 2 e 3 1 w 8 a n.; g $+2 6 6 B z f.+.P ,.f.G.o 5 D 1 8 s.g . . ",
". . . r.L F.w 2 c 6 z z Q O z z 6 6 5 b D.; i.F a m 3 2 5 4 6 6 c 6 5 b 5 7 | f [ ~.+ b.^ 4 6 p z z Q f.z z p 6 6 3 f a p.+ . . ",
". . . %+3.f 1 1 6 n n R R z B R o 5 2 ( k.@ n.} | x e 4 6 p M M p n n p C e 7 l f K k.r _ b 2 n n B B B B 6 6 2 2 w 8 3.o.g . . ",
". + + 2.d.(.a <.2 2 5 c d d d 6 e 3 &+, h = >.f w 2 4 c o y z z N N A M 6 4 e 7 l a  +h @ P.2 6 5 d n M n e 2 w 7 | L 3.*++ . . ",
". . . u.d.` ).a a 1 7 3 e e 2 7 3 w q @ J p.|  .b b n p B z f.P ,.e.O z M p 4 7 7 } S.w.h = W.w 2 e 3 C 5 3 7 7 a a 3.d.q g . . ",
". . + s l.d.d.(.8 <.1 1 1 1 w w 1 `.$ @  +a w 7 e 6 n B ,.P ..I =.'.P Q R 6 c 2 7 f a t.@ r K.a F.1 w 1 1 w f } (.a d.d.a.+ . . ",
". . . v.=+d.3.3.a a k l m -+] W.;+>+@ , $.k 1 7 b 4 R z ,.P X V._.I X O z A 6 e 7 <.} ` %.@ < S.f f f | <.a ).4.3.d.d.=+N.g . . ",
". . + > %+*+m.m.2.a.a.J.%.s ~.N.,+@ r #+).k | 2 6 6 p z P =.X _._.'.X ,.O A 6 e 7 a ).3.'+:.h T.u.{.2.@.r.r.o.p.)+'+!+)+b.+ . . ",
". . . @ @ # > @ @ @ @ + + + @ @ h r B.!.` a 1 w 2 M A O P ..6.6._.X ..P f.B d 5 7 1 a (.h.b.@ r h @ + @ . r @ @ @ @ r @ @ g . . ",
". . . @ @ ,+T.T.s %.q.' {. +@.j }.# + u.` k 1 7 3 6 B N P X X 5.5.X =.O N R 6 e D f k [ u.h k.s %.>+= T.T.t t t i.b.b.r @ + . . ",
". . + @ b.'+` d.` 3.a ).} f f } a U h r E.a F.w e 4 n R z f.....'.=...O B 6 c e 7 <.a %+; @ ~+l k  .l F.m [ $.c.!+!+)+0 @ g . . ",
". . g @ @ *+d.3.3.).<. .w 1 1 7 w x.q.@ > t. .1 2 c 6 R z Q +.P f.O P G.B 6 b 2 1 8 t.:.r _ R.1 w 7 7 7  .} f 3.3.d.p.> @ + . . ",
". . . r > C.` 4.k 1 7 2 b b c 2 5 7 ~ t h $ O.1 1 e 5 6 p B z z O O B B n 4 5 1 m O.0 ; E { 2 e 4 e e 3 2 1 l } 3.a 9.h @ . . . ",
". . + + r > S.a F.7 2 6 M n n 6 6 6 2 L.T h j.W.1 7 2 4 n A B B B R 6 p 5 e 3 w ] N.@ B.z.7 b 6 6 6 M c d e 7 f ).-+i.; + . . . ",
". . . + @ @ 2.w 2 e d M R B B o M c e e .+k.@ }.m 1 D 7 6 6 d d 6 d d b 2 7 1 m }.; :.( 3 5 M M p N B R 6 6 5 7 1 ++@ @ . . . . ",
". . . . ; ; : { e 6 6 B N f.f.e.N R 6 5 x.Z.; :.{+f w w 1 2 e e 5 e 2 3 7 w 1 ) H.@ {.b 6 6 p B z Q f.Q G.6 c b ]+= @ @ . . . . ",
". . . . + @ @ .+b d A O +.P ^+=.Q z M 6 2 ] /+@ J S.f 1 w 1 7 7 7 7 w 1 <. .S.b.@ % b e e p z ,.......+.N z p 4 (+H.; . . . . . ",
". . . . . @ + ;.6 B O P X '.X V...O p 6 4 7 ! $ @ w._ ' Y.X.y.' ' ' X.X.y.Z.w.@ i.! 1 b c y O =.X 6.6.X f.B p 6 i @ @ . . . . . ",
". . . . + g + r _+R f.P '.X X X V.+.A n 5 7 a  +r @ @ @ . ; + @ @ + g ; @ @ @ ; @.8 D 5 6 B P ..5.g.X ..=.z M :+:.@ + . . . . . ",
". . . . . . + + : <+z +.X _.X X ..P N 6 5 D m = ; 0 s a.X.' X.X.q.X.X.X.X.%.b.@ %.R.7 e n A P ..X _._.I =.z [+>+h . . . . . . . ",
". . . . . . . g @ }+z Q P ..5...+.z 6 4 3 7 K.k.@ #+k -+F.m m 3 m m m  . .[.++@ k.) 1 3 p B z ......V.=.f.z M.r @ + . . . . . . ",
". . . . . + + + + ;.|+z P ,.P ,.f.z p c 2 1+b.; t -+} 1 m 3 7 2 e D 7 1 1 f a ,+@ , ] 7 5 R B ,.+...f.O O <+V @ g . . . . . . . ",
". . . . . . . . + g u y B z z z y o 4 2 3 {.; > 0.a F.7 2 e 5 4 4 d e b D F.l 0.J + 2+7 3 c p y z z z z B 3+@ ; + . . . . . . . ",
". . . . . . + . + + # 1.6 p p n 6 6 3 7 Q.$ @ Y.F.1 w e 4 6 6 n p M d 6 e 3 f  ._ ; - z.7 3 c 6 p R R 6 |+> @ + . . . . . . . . ",
". . . . . . . . . @ ; i ^.4 c 6 2 D 7 m J.+ $ K 1 3 4 c p o A z y B p M 6 e 7 1 F 0 @ ' 1 D 3 e 4 c c |.].r @ . . . . . . . . . ",
". . . . . . . . . + @ + 4+3 x 7 7 1 | s.k.+ j  .1 3 4 n y Q ,.O O P B A p c b 1 1 j @ # 0.w w 7 7 3 2 5+h ; . . . . . . . . . . ",
". . . . . . . . . . + g B.#.l | f l [ % @ , W.| D 4 6 R z O ....'...,.z n 6 5 2 l [ , @ = W.a l a 1 ! b.@ + + . . . . . . . . . ",
". . . . . . . . . . + g + , F $.$.$.r.@ @ #+a 1 7 e n z P X 5.X X I X f.A o 5 2 1 k #+> @ ++$.S.S.S.6+@ @ + . . . . . . . . . . ",
". . . . . . . . . . . + g g k.@ h @ r h = >.L 1 2 6 p z f.P X X _.5.=.,.N 6 6 3 1 a ` ~.r @ h k.k.# ; ; . . . . . . . . . . . . ",
". . . . . . . . . . . + + @ h @ # :.k.@ w.S.l f 7 4 o z ,.=.X 6._.5...O z n c b | l $.,+h # k.# @ @ @ @ . . . . . . . . . . . . ",
". . . . . . . . . . . . . + @ h D.P.7+> + a.8  .w 5 6 B O ,.V.X X ..X P A p 6 x 1 } u.@ # 8+9+u h @ g . . . . . . . . . . . . . ",
". . . . . . . . . . . . . . g g # ) 3 0+k.k.#.1 7 5 d y z O =.P ^+Q z N n 4 e 7  .0.k.h 3+O :+:.; @ . . . . . . . . . . . . . . ",
". . . . . . . . . . . . . . + @ @ T ++W.,+@ ,+W. .D 6 n R z z N O O N R p 4 3 w 1+= @ w.<+M.a+; @ . . . . . . . . . . . . . . . ",
". . . . . . . . . . . . . . . . ; . @ q p.< + ~+7 w 2 4 p R y z z y 6 n 6 2 3 1 @.; k.( b+# @ @ + . . . . . . . . . . . . . . . ",
". . . . . . . . . . . . . . . + + @ # k.X.~.@ > 0.1 7 3 b d n o n 6 M 6 2 D  .c+$ @ %.' r @ @ . . . . . . . . . . . . . . . . . ",
". . . . . . . . . . . . . . . . . + + + @ > r @ =  .1 D 2 e C c 5 3 2 1 7 w a = @ ; b.h ; g + . . . . . . . . . . . . . . . . . ",
". . . . . . . . . . . . . . . . + . + + @ h @ r @ n.a 1  .f 2 7 D 2 w w f a d+@ ; @ + @ + . . . . . . . . . . . . . . . . . . . ",
". . . . . . . . . . . . . . . . . . . . + + @ @ h a+j `.S.1+] W.W.W.W.1+O.K.i.@ @ ; g + . . . . . . . . . . . . . . . . . . . . ",
". . . . . . . . . . . . . . . . . . . . . . . g @ + r k.% = = E = E = t > @ @ @ g + + . . . . . . . . . . . . . . . . . . . . . "};
