/* XPM */
static char * ivc_xpm[] = {
"16 16 128 2",
"  	c #C7DCB5",
". 	c #539123",
"+ 	c #9EC187",
"@ 	c #9BBF83",
"# 	c #B1CE45",
"$ 	c #53911B",
"% 	c #8AB72B",
"& 	c #5A9719",
"* 	c #A1C385",
"= 	c #559510",
"- 	c #94BE26",
"; 	c #98C12E",
"> 	c #8EBB29",
", 	c #9DC331",
"' 	c #A2C484",
") 	c #5B9715",
"! 	c #4D8D11",
"~ 	c #9AC233",
"{ 	c #97C12F",
"] 	c #97C02C",
"^ 	c #95BF2E",
"/ 	c #9EC439",
"( 	c #76A84D",
"_ 	c #9BC339",
": 	c #75A74A",
"< 	c #488B0B",
"[ 	c #C1D758",
"} 	c #B4D259",
"| 	c #ABCB41",
"1 	c #539115",
"2 	c #A2C742",
"3 	c #9CC437",
"4 	c #CFDE61",
"5 	c #C6DA5E",
"6 	c #A9CA3F",
"7 	c #9EC53B",
"8 	c #89B821",
"9 	c #649D26",
"0 	c #D2E2C3",
"a 	c #D1E2C3",
"b 	c #D1E2C2",
"c 	c #9AC231",
"d 	c #D3E3C4",
"e 	c #7DAC4E",
"f 	c #F4F8F1",
"g 	c #99BD84",
"h 	c #A5C83D",
"i 	c #9DC438",
"j 	c #7BAD26",
"k 	c #82AE66",
"l 	c #82B220",
"m 	c #8EB773",
"n 	c #9AC234",
"o 	c #AECD42",
"p 	c #9EC436",
"q 	c #BCD5A5",
"r 	c #ACCC49",
"s 	c #4B8C13",
"t 	c #77AC28",
"u 	c #99C131",
"v 	c #99C233",
"w 	c #E9F1E2",
"x 	c #6CA321",
"y 	c #6DA425",
"z 	c #72A440",
"A 	c #A9CA43",
"B 	c #5A9713",
"C 	c #D5E4C7",
"D 	c #B2CE9D",
"E 	c #689F38",
"F 	c #5A9533",
"G 	c #66A026",
"H 	c #6FA32E",
"I 	c #A0C538",
"J 	c #A3C844",
"K 	c #609A2E",
"L 	c #A8CA47",
"M 	c #AACC42",
"N 	c #AACC47",
"O 	c #ABCA96",
"P 	c #79AE1B",
"Q 	c #80B12C",
"R 	c #9EC63D",
"S 	c #8AB83E",
"T 	c #347D04",
"U 	c #84B61B",
"V 	c #A4C588",
"W 	c #519012",
"X 	c #6EA23F",
"Y 	c #559313",
"Z 	c #579614",
"` 	c #B6D0AB",
" .	c #BBD4AA",
"..	c #92BA72",
"+.	c #97BC7F",
"@.	c #94BC3B",
"#.	c #A4C586",
"$.	c #72A622",
"%.	c #9BC436",
"&.	c #8BB92A",
"*.	c #398106",
"=.	c #8FBC28",
"-.	c #9DC431",
";.	c #8FBC2C",
">.	c #9CC336",
",.	c #99C230",
"'.	c #9AC22B",
").	c #6AA023",
"!.	c #5E991C",
"~.	c #74A830",
"{.	c #6EA422",
"].	c #97BD83",
"^.	c #B0CF53",
"/.	c #488B11",
"(.	c #8CB667",
"_.	c #72A91D",
":.	c #92BD2B",
"<.	c #68A118",
"[.	c #69A11F",
"}.	c #A3C586",
"|.	c #A5C838",
"1.	c #99C137",
"2.	c #689E44",
"3.	c #9BC336",
"4.	c #77A84A",
"5.	c #518F14",
"6.	c #D2E2C4",
"7.	c #FFFFFF",
"t & /.G S > 1.^.[ [ h { c ,.{ R ",
") 6.7.V y =._ } 4 4 M v i | 6 L ",
"B 0 7.#.x ;._ } 5 5 A n I # # r ",
"B 0 7.* s ) j ~.9 9 Q { ~ | o N ",
"& 6.7.+ g 0 (.O 6.6.Z 8 8 :.p 2 ",
"& 6.7.g ` 7.O a 7.a = U P &./ J ",
"& 0 7.@ O 7.b 7.7.  < < E $ [.% ",
"!.d 7.@ ].7.a 7.7.* . f 7.7.q <.",
"H C 7.+ k 7.f 7.7.m +.7.b 7.7.e ",
"@.).! Y ..7.7.7.7.2.D 7.' 7.7.e ",
"6 |.'.l 4.7.7.7.7.F  .7.' a d X ",
"2 3.] > K 7.7.7.7.T b 7.' : ( . ",
">.; - ] ! 7.7.7.w *.a 7.}.7.7.( ",
"3 ; - ~ {.$ 1 5.1 W   7.0 7.7.( ",
"3 ; - c 3 I -., ^ % z 7.7.7.6.Z ",
"~ ] - %.7 7 ; u ^ , $.! : K & _."};
