/* XPM */
static char * nwb_xpm[] = {
"32 32 256 2",
"  	c None",
". 	c #330000",
"+ 	c #410003",
"@ 	c #440000",
"# 	c #3E0303",
"$ 	c #490003",
"% 	c #470304",
"& 	c #4E0101",
"* 	c #550000",
"= 	c #570001",
"- 	c #590103",
"; 	c #5A0200",
"> 	c #5F0000",
", 	c #610002",
"' 	c #630100",
") 	c #690000",
"! 	c #560904",
"~ 	c #6B0002",
"{ 	c #6D0100",
"] 	c #740001",
"^ 	c #770000",
"/ 	c #541012",
"( 	c #7E0001",
"_ 	c #820000",
": 	c #790407",
"< 	c #71080A",
"[ 	c #5D1112",
"} 	c #7B0601",
"| 	c #640F10",
"1 	c #830206",
"2 	c #5A1512",
"3 	c #8A0002",
"4 	c #840400",
"5 	c #8D0000",
"6 	c #730B12",
"7 	c #930000",
"8 	c #8E0206",
"9 	c #950002",
"0 	c #980100",
"a 	c #691519",
"b 	c #7F0D0D",
"c 	c #97010C",
"d 	c #6B1615",
"e 	c #910700",
"f 	c #9F0000",
"g 	c #A10002",
"h 	c #661A19",
"i 	c #880C0B",
"j 	c #90080F",
"k 	c #81100E",
"l 	c #A40100",
"m 	c #A90000",
"n 	c #821215",
"o 	c #8A0F13",
"p 	c #5B2527",
"q 	c #A60706",
"r 	c #950F0C",
"s 	c #8D130F",
"t 	c #731F20",
"u 	c #791D1D",
"v 	c #8E1415",
"w 	c #811B1B",
"x 	c #B1080D",
"y 	c #B20A05",
"z 	c #8B1C1B",
"A 	c #991615",
"B 	c #802322",
"C 	c #941B1A",
"D 	c #87211F",
"E 	c #941C1F",
"F 	c #6E2F2E",
"G 	c #A51815",
"H 	c #752F2C",
"I 	c #9E1D1F",
"J 	c #7B2D2E",
"K 	c #7F2B2F",
"L 	c #932420",
"M 	c #723332",
"N 	c #B91713",
"O 	c #783234",
"P 	c #832E2C",
"Q 	c #952727",
"R 	c #7B3330",
"S 	c #713839",
"T 	c #803232",
"U 	c #AC2120",
"V 	c #A02928",
"W 	c #942E2F",
"X 	c #7B3A38",
"Y 	c #BE1F1D",
"Z 	c #903334",
"` 	c #813A3B",
" .	c #983231",
"..	c #7D3D40",
"+.	c #A42D30",
"@.	c #863E3F",
"#.	c #A33432",
"$.	c #9E3736",
"%.	c #894141",
"&.	c #7C4745",
"*.	c #B72E2E",
"=.	c #C62829",
"-.	c #91413F",
";.	c #904144",
">.	c #7B4D4E",
",.	c #9A4244",
"'.	c #C33135",
").	c #A14141",
"!.	c #C63231",
"~.	c #CC2F33",
"{.	c #894D4D",
"].	c #93494A",
"^.	c #B53D3D",
"/.	c #9B4947",
"(.	c #B04041",
"_.	c #924F4C",
":.	c #895451",
"<.	c #A84746",
"[.	c #A44B4C",
"}.	c #C73D3A",
"|.	c #9B5050",
"1.	c #9F4E51",
"2.	c #C73D40",
"3.	c #A24F4D",
"4.	c #B1494B",
"5.	c #A84E4F",
"6.	c #D03D3E",
"7.	c #985557",
"8.	c #AF4D4B",
"9.	c #BA4949",
"0.	c #AF4E52",
"a.	c #B54C4E",
"b.	c #975A5A",
"c.	c #C0484B",
"d.	c #A15656",
"e.	c #906060",
"f.	c #A95653",
"g.	c #9E5A5C",
"h.	c #B45250",
"i.	c #CB494B",
"j.	c #C74D4A",
"k.	c #B15656",
"l.	c #AC595B",
"m.	c #B85553",
"n.	c #C35150",
"o.	c #D44A49",
"p.	c #BE5555",
"q.	c #976767",
"r.	c #CC5255",
"s.	c #AD605F",
"t.	c #B95D5D",
"u.	c #D55353",
"v.	c #BF5C5F",
"w.	c #986E6C",
"x.	c #C15D5A",
"y.	c #D75454",
"z.	c #B66264",
"A.	c #C75C5C",
"B.	c #B06965",
"C.	c #D15D5B",
"D.	c #B66968",
"E.	c #D15E61",
"F.	c #C96461",
"G.	c #D85D5E",
"H.	c #C86466",
"I.	c #CE6262",
"J.	c #AF706F",
"K.	c #A77676",
"L.	c #C06B6D",
"M.	c #C36C69",
"N.	c #D76467",
"O.	c #C07170",
"P.	c #D56968",
"Q.	c #BB7476",
"R.	c #B37A76",
"S.	c #A97E7C",
"T.	c #B27A7C",
"U.	c #D26E6F",
"V.	c #D56E6B",
"W.	c #D96C6B",
"X.	c #B07E7E",
"Y.	c #C77776",
"Z.	c #D27472",
"`.	c #CE7879",
" +	c #BC827E",
".+	c #B38885",
"++	c #C77F80",
"@+	c #DC7677",
"#+	c #C38281",
"$+	c #B98787",
"%+	c #D07F7E",
"&+	c #CB8384",
"*+	c #D77F80",
"=+	c #D48381",
"-+	c #CB8987",
";+	c #BA9093",
">+	c #C58C8D",
",+	c #D18889",
"'+	c #C28F8F",
")+	c #B99696",
"!+	c #DD8B89",
"~+	c #E18989",
"{+	c #D78D8F",
"]+	c #CE928E",
"^+	c #D49190",
"/+	c #C59996",
"(+	c #C0A3A2",
"_+	c #DC9897",
":+	c #DD9A98",
"<+	c #D4A09F",
"[+	c #CAA6A7",
"}+	c #E19D9C",
"|+	c #C6A9A8",
"1+	c #D9A5A5",
"2+	c #CBADAC",
"3+	c #E6A2A0",
"4+	c #D1ADAD",
"5+	c #E2A6A8",
"6+	c #E5A7A3",
"7+	c #D8ADB0",
"8+	c #DCAFAC",
"9+	c #D8B3B4",
"0+	c #D4B6B5",
"a+	c #E9ADAF",
"b+	c #E6B1B0",
"c+	c #E2B4B1",
"d+	c #EAB4B4",
"e+	c #DBBDBC",
"f+	c #E0BBBC",
"g+	c #E5BFC0",
"h+	c #D9C5C7",
"i+	c #F1BCBB",
"j+	c #EDBFBC",
"k+	c #D6C9C9",
"l+	c #E3C5C4",
"m+	c #DCC8CB",
"n+	c #EDC1C4",
"o+	c #DFC8C5",
"p+	c #E0CCCE",
"q+	c #EACBCA",
"r+	c #EFCACA",
"s+	c #E6D1D4",
"t+	c #EAD2CF",
"u+	c #E4D7D7",
"v+	c #EAD5D8",
"w+	c #F6D1D1",
"x+	c #EED7D3",
"y+	c #F1DCDE",
"z+	c #ECDFDF",
"A+	c #F1E4E4",
"B+	c #F6E9E9",
"C+	c #F3EEEC",
"D+	c #F7F1F0",
"E+	c #FCF6F5",
"F+	c #FFFBFA",
"G+	c #FEFFFC",
"                                                                ",
"                        ] _ 8 E L j 4 }                         ",
"                  ~ 3 ).z.O.++%+++%+Q.D.[.v ]                   ",
"                3 [.Q.++++++Y.Y.Y.++=+%+++Y.f.s ~               ",
"            { v z.&+-+=+{+%+`.Z.`.{+{+!+-+%+%+O. .(             ",
"          ] z z.O.^+_+5+_+U.N.P.W.3+}+}+}+^+-+++O.W (           ",
"        ~ o k.t.L.H.=+!+N.C.G.C.N.b+n+d+a+5+<+,+L.t.Q }         ",
"        i <.h.M.n.n.r.U.y.y.y.y.G.~+w+w+r+i+a+,+p.0.5.o ~       ",
"      |.>+7+^+9.j.i.o.U.o.o.o.y.W.o.@+d+n+d+*+I.j.9.4.$._       ",
"    h  +9+g+q+n.2.6.6.V.6.6.G.W.6.6.U.6.6.P.6.i.A.t.(.<.z ]     ",
"    B <+e+q+y+A.!.!.~.U.~.N.N.!.~.~.W.!.~.C.=.*.=+:+L.#.Q (     ",
"    n '+q+v+1+p.H.I.=.I.F.u.Y =.=.I.2.=.Y A.=.=.`.<+t.V Q } ,   ",
"  | %.E 5.[+&+Y Y }.I.s+g+2.Y Y I.g+Y Y Y ,+c+f+g+8+4.I E } ]   ",
"  ` b o A o+G+Q.N N N F+s+1+N N l+G+,+Y N y+l+D+9+s+A+A s k :   ",
"  ^ : i j h+x+D+v.x y F+>+A+N *.D+f+t+x p.E+-+A+y 0.G+A j } ]   ",
"  ] } 1 e h+[+4+A+^.y F+x B+L.[+v+^.E+a.9+e+++D+l+A+0+9 1 : ]   ",
"  ~ ] ( 3 h+[+l m+y+U F+m 0+l+z+>+m o+9+D+D.#+D+4+e+D+S.4 ] {   ",
"  { { ] 3 o+[+g q u+p+F+q 8.E+C+g g Q.G+u+m #+A+l 9 0+k+( ] {   ",
"  ~ ] ] ( k+[+0 g #.A+G+g g t+0+l g g A+;+g T.D+[+2+D+(+} ] ~   ",
"  ; ~ { } |+.+9 9 g 3.m+f #.;+[.0 g g '++.0 B.o+o+h+)+{.] ~ '   ",
"  @ ) ~ e.n g.9 9 9 0 p+s+s.f f 0 0 9 0 l.0 s.9 e 8 1 < {.H =   ",
"    , &...] d.5 9 9 c C+C+J.1.9 0 9 0 R.z+v+$+9 3 _ ( ] ' F     ",
"    p >.' { {._ 5 e W J.T. .C 3.5.5.[.q+x+z+s+j 3 ^ ] ~ , ,     ",
"      > ' ' q.)+K.w 1.8 5 [.E 8 5 5 W q+l+q+l+w ] ] ~ ' , #     ",
"      $ , w.[+4+8+'+_ 3 _ 3 ,.3 3 5 Z '+7+8+.+;.` ..M S 2       ",
"        * S.;+$+$+$+J } ( ( _ |.,.Z n ( -.{.] ) ' ' = ;         ",
"          :.b.:.b.g.K u u w B /.-.^ ] ] ] K R X h ; =           ",
"            F O T H , ' ~ ' { 6 ~ 6 ~ ) t T ` T O [             ",
"              / [ ! = ; , , ' ' ' > , , d | h h 2               ",
"                  & * = = ; = - ; - = = - [ & #                 ",
"                      @ & ! ! & ! & & & & .                     ",
"                              . .                               "};
